<?xml version="1.0" encoding="UTF-8" standalone="no"?>
<svg width="640px" height="360px" viewBox="0 0 640 360" version="1.1" xmlns="http://www.w3.org/2000/svg" xmlns:xlink="http://www.w3.org/1999/xlink" xmlns:sketch="http://www.bohemiancoding.com/sketch/ns">
    <!-- Generator: Sketch 3.3.2 (12043) - http://www.bohemiancoding.com/sketch -->
    <title>landing-page</title>
    <desc>Created with Sketch.</desc>
    <defs>
        <radialGradient cx="1.21119367%" cy="62.5565296%" fx="1.21119367%" fy="62.5565296%" r="133.945459%" id="radialGradient-1">
            <stop stop-color="#292E35" offset="0%"></stop>
            <stop stop-color="#1D1D24" offset="100%"></stop>
        </radialGradient>
        <rect id="path-2" x="0" y="0" width="640" height="360"></rect>
        <linearGradient x1="50%" y1="0%" x2="50%" y2="100%" id="linearGradient-4">
            <stop stop-color="#4CC2B8" stop-opacity="0" offset="0%"></stop>
            <stop stop-color="#25A4D5" stop-opacity="0.24646173" offset="100%"></stop>
        </linearGradient>
    </defs>
    <g id="Ships" stroke="none" stroke-width="1" fill="none" fill-rule="evenodd" sketch:type="MSPage">
        <g id="landing-page" sketch:type="MSLayerGroup">
            <mask id="mask-3" sketch:name="Mask" fill="white">
                <use xlink:href="#path-2"></use>
            </mask>
            <use id="Mask" fill="url(#radialGradient-1)" sketch:type="MSShapeGroup" xlink:href="#path-2"></use>
            <rect id="Rectangle-108" opacity="0.3" fill="url(#linearGradient-4)" sketch:type="MSShapeGroup" mask="url(#mask-3)" x="0" y="0" width="640" height="360"></rect>
            <g id="Shape-+-Path" mask="url(#mask-3)" fill="#FFFFFF" sketch:type="MSShapeGroup">
                <g transform="translate(229.000000, 91.900000)">
                    <path d="M0.916666667,162.513158 L182.083333,162.513158 L182.083333,181.583333 L0.916666667,181.583333 L0.916666667,162.513158 Z" id="Shape" opacity="0.5"></path>
                    <path d="M69.3785965,107.877105 L110.856228,118.937807 L161.487544,132.477632 C169.115614,134.48 176.934386,129.998509 179.032105,122.370439 C181.034474,114.742368 176.552982,106.923596 168.924912,104.825877 L118.293596,91.2860526 L91.9767544,5.2795614 L73.5740351,0.416666667 L73.5740351,79.367193 L26.1846491,66.6855263 L17.3170175,44.5641228 L3.49114035,40.8454386 L3.49114035,90.1418421 L18.7472807,94.2419298 L69.3785965,107.877105 L69.3785965,107.877105 Z" id="Path"></path>
                </g>
            </g>
        </g>
    </g>
</svg>